<?xml version="1.0" encoding="UTF-8"?>
<!DOCTYPE svg PUBLIC "-//W3C//DTD SVG 1.1//EN" "http://www.w3.org/Graphics/SVG/1.1/DTD/svg11.dtd">
<svg xmlns="http://www.w3.org/2000/svg" version="1.1" width="500px" height="500px" style="shape-rendering:geometricPrecision; text-rendering:geometricPrecision; image-rendering:optimizeQuality; fill-rule:evenodd; clip-rule:evenodd" xmlns:xlink="http://www.w3.org/1999/xlink">
<g><path style="opacity:1" fill="#186ffa" d="M 289.5,67.5 C 293.662,71.0013 296.662,75.3346 298.5,80.5C 296.857,80.5198 295.524,79.8532 294.5,78.5C 292.444,79.6283 291.444,81.4617 291.5,84C 292.868,88.7596 293.368,93.5929 293,98.5C 291.751,95.0749 290.251,91.7416 288.5,88.5C 289.585,85.227 289.752,81.8936 289,78.5C 288,77.1667 287,77.1667 286,78.5C 285.56,80.0762 284.727,81.4096 283.5,82.5C 284.026,84.2303 285.026,85.5637 286.5,86.5C 287.48,89.0865 287.813,91.7531 287.5,94.5C 282.856,81.1898 273.856,72.1898 260.5,67.5C 257.305,65.9704 253.805,65.3037 250,65.5C 246.195,65.3037 242.695,65.9704 239.5,67.5C 234.052,68.5558 229.052,70.7224 224.5,74C 219.622,78.9477 215.622,84.4477 212.5,90.5C 211.504,90.4142 210.671,90.7476 210,91.5C 209.318,98.7937 208.152,105.96 206.5,113C 208.968,113.691 210.968,115.524 212.5,118.5C 212.854,123.158 214.854,126.824 218.5,129.5C 222.711,133.877 227.378,137.71 232.5,141C 235.824,141.943 239.157,142.776 242.5,143.5C 246.634,144.485 250.968,144.818 255.5,144.5C 253.952,145.794 251.952,146.461 249.5,146.5C 247.5,146.333 245.5,146.167 243.5,146C 240.178,144.448 236.678,143.282 233,142.5C 230.684,143.435 228.518,144.602 226.5,146C 229.79,145.631 233.123,145.631 236.5,146C 232.769,148.532 228.769,150.532 224.5,152C 226.833,152.333 229.167,152.667 231.5,153C 229.405,153.556 229.238,154.056 231,154.5C 232.225,154.138 233.391,153.638 234.5,153C 231.972,152.331 231.972,151.498 234.5,150.5C 236.225,151.015 237.892,151.682 239.5,152.5C 237.771,153.597 236.104,154.763 234.5,156C 237.699,156.401 240.699,157.234 243.5,158.5C 243.706,161.495 243.04,164.162 241.5,166.5C 241.662,164.473 241.495,162.473 241,160.5C 240.617,159.944 240.117,159.611 239.5,159.5C 237.485,158.076 235.152,157.41 232.5,157.5C 232.167,157.5 231.833,157.5 231.5,157.5C 228.018,154.556 224.018,152.556 219.5,151.5C 212.93,148.053 207.93,143.053 204.5,136.5C 202.605,130.382 199.939,124.715 196.5,119.5C 195.167,109.833 195.167,100.167 196.5,90.5C 199.981,75.7026 208.314,64.7026 221.5,57.5C 224.574,56.6976 227.574,55.6976 230.5,54.5C 241.413,52.4123 252.413,52.079 263.5,53.5C 268.663,57.0414 274.33,59.5414 280.5,61C 279.782,62.9874 278.782,64.8208 277.5,66.5C 279.329,67.2824 280.829,66.6157 282,64.5C 284.115,65.4394 286.615,66.4394 289.5,67.5 Z"/></g>
<g><path style="opacity:0.537" fill="#7ca5ec" d="M 234.5,51.5 C 233.41,52.8571 232.076,53.8571 230.5,54.5C 227.574,55.6976 224.574,56.6976 221.5,57.5C 225.211,54.3639 229.545,52.3639 234.5,51.5 Z"/></g>
<g><path style="opacity:0.145" fill="#a7c8fd" d="M 270.5,53.5 C 273.331,54.0787 275.664,55.412 277.5,57.5C 274.669,56.9213 272.336,55.588 270.5,53.5 Z"/></g>
<g><path style="opacity:1" fill="#4b80ed" d="M 270.5,53.5 C 272.336,55.588 274.669,56.9213 277.5,57.5C 282.452,59.793 286.452,63.1264 289.5,67.5C 286.615,66.4394 284.115,65.4394 282,64.5C 280.829,66.6157 279.329,67.2824 277.5,66.5C 278.782,64.8208 279.782,62.9874 280.5,61C 274.33,59.5414 268.663,57.0414 263.5,53.5C 252.413,52.079 241.413,52.4123 230.5,54.5C 232.076,53.8571 233.41,52.8571 234.5,51.5C 246.71,48.4005 258.71,49.0672 270.5,53.5 Z"/></g>
<g><path style="opacity:1" fill="#76acfa" d="M 260.5,67.5 C 253.5,66.1667 246.5,66.1667 239.5,67.5C 242.695,65.9704 246.195,65.3037 250,65.5C 253.805,65.3037 257.305,65.9704 260.5,67.5 Z"/></g>
<g><path style="opacity:1" fill="#d2e7fd" d="M 260.5,67.5 C 273.856,72.1898 282.856,81.1898 287.5,94.5C 287.5,94.8333 287.5,95.1667 287.5,95.5C 290.657,115.41 283.657,130.41 266.5,140.5C 258.751,143.154 250.751,144.154 242.5,143.5C 239.157,142.776 235.824,141.943 232.5,141C 227.378,137.71 222.711,133.877 218.5,129.5C 216.459,125.809 214.459,122.142 212.5,118.5C 211.781,113.684 211.114,108.85 210.5,104C 211.104,99.481 211.771,94.981 212.5,90.5C 215.622,84.4477 219.622,78.9477 224.5,74C 229.052,70.7224 234.052,68.5558 239.5,67.5C 246.5,66.1667 253.5,66.1667 260.5,67.5 Z"/></g>
<g><path style="opacity:1" fill="#1a6ff8" d="M 233.5,99.5 C 225.405,101.073 221.739,97.7396 222.5,89.5C 222.574,87.5891 223.574,86.4224 225.5,86C 235.793,84.6332 238.959,88.7999 235,98.5C 234.617,99.056 234.117,99.3893 233.5,99.5 Z"/></g>
<g><path style="opacity:1" fill="#2573f6" d="M 246.5,73.5 C 254.678,72.8424 258.178,76.5091 257,84.5C 254.774,88.8608 251.274,90.3608 246.5,89C 242.139,86.7742 240.639,83.2742 242,78.5C 243.025,76.313 244.525,74.6464 246.5,73.5 Z"/></g>
<g><path style="opacity:1" fill="#156efa" d="M 276.5,88.5 C 276.425,91.2062 276.092,93.8728 275.5,96.5C 273.406,97.2422 271.239,97.9089 269,98.5C 267.833,98.3333 266.667,98.1667 265.5,98C 265.085,95.9737 264.085,94.4737 262.5,93.5C 262.589,86.9373 265.922,84.4373 272.5,86C 273.984,86.6622 275.317,87.4955 276.5,88.5 Z"/></g>
<g><path style="opacity:1" fill="#5089ed" d="M 222.5,89.5 C 221.739,97.7396 225.405,101.073 233.5,99.5C 233.389,100.117 233.056,100.617 232.5,101C 223.593,101.93 220.26,98.0962 222.5,89.5 Z"/></g>
<g><path style="opacity:0.837" fill="#467fe7" d="M 298.5,80.5 C 301.535,84.5911 303.369,89.2578 304,94.5C 304.5,105.828 304.667,117.162 304.5,128.5C 303.883,128.389 303.383,128.056 303,127.5C 302.667,116.833 302.333,106.167 302,95.5C 300.142,90.7171 298.975,85.7171 298.5,80.5 Z"/></g>
<g><path style="opacity:1" fill="#367aee" d="M 276.5,88.5 C 278.413,93.1255 277.413,97.1255 273.5,100.5C 266.705,102.941 263.038,100.607 262.5,93.5C 264.085,94.4737 265.085,95.9737 265.5,98C 266.667,98.1667 267.833,98.3333 269,98.5C 271.239,97.9089 273.406,97.2422 275.5,96.5C 276.092,93.8728 276.425,91.2062 276.5,88.5 Z"/></g>
<g><path style="opacity:1" fill="#2e76ee" d="M 212.5,90.5 C 211.771,94.981 211.104,99.481 210.5,104C 211.114,108.85 211.781,113.684 212.5,118.5C 210.968,115.524 208.968,113.691 206.5,113C 208.152,105.96 209.318,98.7937 210,91.5C 210.671,90.7476 211.504,90.4142 212.5,90.5 Z"/></g>
<g><path style="opacity:0.607" fill="#73a0e7" d="M 196.5,90.5 C 195.167,100.167 195.167,109.833 196.5,119.5C 194.96,114.935 194.293,110.102 194.5,105C 194.293,99.8979 194.96,95.0645 196.5,90.5 Z"/></g>
<g><path style="opacity:1" fill="#4983eb" d="M 273.5,110.5 C 266.098,108.967 262.765,111.967 263.5,119.5C 262.216,116.316 262.549,113.15 264.5,110C 267.885,107.926 270.885,108.093 273.5,110.5 Z"/></g>
<g><path style="opacity:1" fill="#1a6ff9" d="M 234.5,122.5 C 230.437,125.44 226.77,125.107 223.5,121.5C 223.461,120.417 223.127,119.417 222.5,118.5C 223.5,117.833 224.5,117.167 225.5,116.5C 223.645,113.196 224.478,111.196 228,110.5C 235.342,111.532 237.508,115.532 234.5,122.5 Z"/></g>
<g><path style="opacity:1" fill="#176ffa" d="M 273.5,110.5 C 276.89,111.944 278.223,114.61 277.5,118.5C 274.444,122.241 270.444,123.407 265.5,122C 264.934,121.005 264.267,120.172 263.5,119.5C 262.765,111.967 266.098,108.967 273.5,110.5 Z"/></g>
<g><path style="opacity:1" fill="#397bf0" d="M 234.5,122.5 C 237.508,115.532 235.342,111.532 228,110.5C 224.478,111.196 223.645,113.196 225.5,116.5C 224.5,117.167 223.5,117.833 222.5,118.5C 223.127,119.417 223.461,120.417 223.5,121.5C 220.434,116.887 221.101,112.72 225.5,109C 234.865,107.976 238.365,112.143 236,121.5C 235.617,122.056 235.117,122.389 234.5,122.5 Z"/></g>
<g><path style="opacity:1" fill="#457de4" d="M 277.5,118.5 C 277.67,119.822 277.337,120.989 276.5,122C 272.667,124.753 268.667,125.086 264.5,123C 263.663,121.989 263.33,120.822 263.5,119.5C 264.267,120.172 264.934,121.005 265.5,122C 270.444,123.407 274.444,122.241 277.5,118.5 Z"/></g>
<g><path style="opacity:1" fill="#3e83ea" d="M 212.5,118.5 C 214.459,122.142 216.459,125.809 218.5,129.5C 214.854,126.824 212.854,123.158 212.5,118.5 Z"/></g>
<g><path style="opacity:0.996" fill="#4c83e5" d="M 196.5,119.5 C 199.939,124.715 202.605,130.382 204.5,136.5C 200.507,131.511 197.84,125.844 196.5,119.5 Z"/></g>
<g><path style="opacity:1" fill="#2372f6" d="M 254.5,134.5 C 251.545,135.159 248.545,135.492 245.5,135.5C 240.691,131.336 240.358,126.836 244.5,122C 253.58,118.785 257.747,121.952 257,131.5C 256.623,132.942 255.79,133.942 254.5,134.5 Z"/></g>
<g><path style="opacity:0.973" fill="#6390e9" d="M 304.5,129.5 C 306.598,133.956 310.265,136.123 315.5,136C 316.942,136.377 317.942,137.21 318.5,138.5C 313.9,137.917 309.566,136.583 305.5,134.5C 304.548,132.955 304.215,131.288 304.5,129.5 Z"/></g>
<g><path style="opacity:1" fill="#367af1" d="M 287.5,95.5 C 289.806,99.227 290.806,103.394 290.5,108C 290.25,112.172 289.416,116.006 288,119.5C 284.26,125.062 280.76,130.728 277.5,136.5C 273.92,138.125 270.254,139.459 266.5,140.5C 283.657,130.41 290.657,115.41 287.5,95.5 Z"/></g>
<g><path style="opacity:1" fill="#6a9dea" d="M 254.5,134.5 C 253.054,135.94 251.221,136.607 249,136.5C 247.615,136.486 246.449,136.152 245.5,135.5C 248.545,135.492 251.545,135.159 254.5,134.5 Z"/></g>
<g><path style="opacity:1" fill="#4a8cf2" d="M 266.5,140.5 C 263.374,142.99 259.708,144.323 255.5,144.5C 250.968,144.818 246.634,144.485 242.5,143.5C 250.751,144.154 258.751,143.154 266.5,140.5 Z"/></g>
<g><path style="opacity:1" fill="#5288eb" d="M 93.5,166.5 C 92.8334,160.654 92.1668,154.654 91.5,148.5C 90.646,147.478 89.646,146.645 88.5,146C 60.1667,145.333 31.8333,145.333 3.5,146C 2.52912,147.481 1.19578,148.315 -0.5,148.5C -0.5,148.167 -0.5,147.833 -0.5,147.5C 0.316435,145.856 1.64977,144.69 3.5,144C 32.1667,143.333 60.8333,143.333 89.5,144C 90.6667,145.167 91.8333,146.333 93,147.5C 93.4995,153.825 93.6662,160.158 93.5,166.5 Z"/></g>
<g><path style="opacity:1" fill="#126ffd" d="M 298.5,80.5 C 298.975,85.7171 300.142,90.7171 302,95.5C 302.333,106.167 302.667,116.833 303,127.5C 303.383,128.056 303.883,128.389 304.5,128.5C 304.5,128.833 304.5,129.167 304.5,129.5C 304.215,131.288 304.548,132.955 305.5,134.5C 309.566,136.583 313.9,137.917 318.5,138.5C 318.5,139.167 318.5,139.833 318.5,140.5C 318.542,144.009 317.876,147.342 316.5,150.5C 312.833,150.5 309.167,150.5 305.5,150.5C 305.286,148.856 305.62,147.356 306.5,146C 304.167,146.333 301.833,146.667 299.5,147C 297.308,145.641 295.641,143.808 294.5,141.5C 293.042,140.218 291.708,140.218 290.5,141.5C 290.144,143.19 289.144,144.19 287.5,144.5C 284.092,145.367 280.758,146.533 277.5,148C 278.728,149.49 278.728,150.99 277.5,152.5C 271.868,156.44 265.535,158.94 258.5,160C 257.577,162.041 257.244,164.208 257.5,166.5C 281.824,167.833 306.491,168.5 331.5,168.5C 356.509,168.5 381.176,167.833 405.5,166.5C 406.328,160.681 406.828,154.681 407,148.5C 407.833,147.667 408.667,146.833 409.5,146C 438.831,145.5 468.165,145.333 497.5,145.5C 498.167,146.167 498.833,146.833 499.5,147.5C 499.5,158.167 499.5,168.833 499.5,179.5C 497.986,182.095 495.652,183.429 492.5,183.5C 491.167,198.151 490.501,213.151 490.5,228.5C 490.515,244.191 490.848,259.857 491.5,275.5C 490.99,278.407 490.323,281.241 489.5,284C 490.164,333.766 490.831,383.599 491.5,433.5C 493.729,434.577 496.063,435.244 498.5,435.5C 498.5,436.167 498.833,436.5 499.5,436.5C 499.5,438.833 499.5,441.167 499.5,443.5C 497.952,443.821 497.285,444.821 497.5,446.5C 332.517,447.66 167.517,447.826 2.5,447C 1.72954,444.393 1.06288,441.727 0.5,439C 1.51499,435.719 3.51499,434.885 6.5,436.5C 7.45189,434.955 7.78522,433.288 7.5,431.5C 8.49932,348.668 8.83266,265.668 8.5,182.5C 6.83333,182.5 5.16667,182.5 3.5,182.5C 1.56954,182.229 0.236209,181.229 -0.5,179.5C -0.5,169.167 -0.5,158.833 -0.5,148.5C 1.19578,148.315 2.52912,147.481 3.5,146C 31.8333,145.333 60.1667,145.333 88.5,146C 89.646,146.645 90.646,147.478 91.5,148.5C 92.1668,154.654 92.8334,160.654 93.5,166.5C 117.824,167.833 142.491,168.5 167.5,168.5C 192.509,168.5 217.176,167.833 241.5,166.5C 243.04,164.162 243.706,161.495 243.5,158.5C 240.699,157.234 237.699,156.401 234.5,156C 236.104,154.763 237.771,153.597 239.5,152.5C 237.892,151.682 236.225,151.015 234.5,150.5C 231.972,151.498 231.972,152.331 234.5,153C 233.391,153.638 232.225,154.138 231,154.5C 229.238,154.056 229.405,153.556 231.5,153C 229.167,152.667 226.833,152.333 224.5,152C 228.769,150.532 232.769,148.532 236.5,146C 233.123,145.631 229.79,145.631 226.5,146C 228.518,144.602 230.684,143.435 233,142.5C 236.678,143.282 240.178,144.448 243.5,146C 245.5,146.167 247.5,146.333 249.5,146.5C 251.952,146.461 253.952,145.794 255.5,144.5C 259.708,144.323 263.374,142.99 266.5,140.5C 270.254,139.459 273.92,138.125 277.5,136.5C 280.76,130.728 284.26,125.062 288,119.5C 289.416,116.006 290.25,112.172 290.5,108C 290.806,103.394 289.806,99.227 287.5,95.5C 287.5,95.1667 287.5,94.8333 287.5,94.5C 287.813,91.7531 287.48,89.0865 286.5,86.5C 285.026,85.5637 284.026,84.2303 283.5,82.5C 284.727,81.4096 285.56,80.0762 286,78.5C 287,77.1667 288,77.1667 289,78.5C 289.752,81.8936 289.585,85.227 288.5,88.5C 290.251,91.7416 291.751,95.0749 293,98.5C 293.368,93.5929 292.868,88.7596 291.5,84C 291.444,81.4617 292.444,79.6283 294.5,78.5C 295.524,79.8532 296.857,80.5198 298.5,80.5 Z M 420.5,277.5 C 420.5,287.5 420.5,297.5 420.5,307.5C 306.332,307.833 192.332,307.5 78.5,306.5C 78.5,296.833 78.5,287.167 78.5,277.5C 192.5,277.5 306.5,277.5 420.5,277.5 Z M 111.5,371.5 C 115.437,371.207 119.27,371.54 123,372.5C 123.5,379.158 123.666,385.825 123.5,392.5C 119.5,392.5 115.5,392.5 111.5,392.5C 111.167,392.5 110.833,392.5 110.5,392.5C 110.205,385.412 110.538,378.412 111.5,371.5 Z M 332.5,371.5 C 334.405,378.219 335.071,385.219 334.5,392.5C 330.167,392.5 325.833,392.5 321.5,392.5C 321.5,385.833 321.5,379.167 321.5,372.5C 325.064,371.577 328.731,371.244 332.5,371.5 Z M 385.5,371.5 C 386.209,372.404 387.209,372.737 388.5,372.5C 388.5,379.167 388.5,385.833 388.5,392.5C 384.167,392.5 379.833,392.5 375.5,392.5C 375.334,385.825 375.5,379.158 376,372.5C 379.057,371.549 382.223,371.216 385.5,371.5 Z M 177.5,371.5 C 177.5,378.5 177.5,385.5 177.5,392.5C 173.167,392.5 168.833,392.5 164.5,392.5C 164.334,385.825 164.5,379.158 165,372.5C 169.066,371.536 173.233,371.203 177.5,371.5 Z"/></g>
<g><path style="opacity:1" fill="#5389eb" d="M 497.5,145.5 C 468.165,145.333 438.831,145.5 409.5,146C 408.667,146.833 407.833,147.667 407,148.5C 406.828,154.681 406.328,160.681 405.5,166.5C 405.334,160.158 405.5,153.825 406,147.5C 407.167,146.333 408.333,145.167 409.5,144C 438.167,143.333 466.833,143.333 495.5,144C 496.416,144.278 497.082,144.778 497.5,145.5 Z"/></g>
<g><path style="opacity:0.2" fill="#b5d9fe" d="M 318.5,138.5 C 319.117,138.611 319.617,138.944 320,139.5C 320.805,142.696 320.638,145.696 319.5,148.5C 319.806,145.615 319.473,142.948 318.5,140.5C 318.5,139.833 318.5,139.167 318.5,138.5 Z"/></g>
<g><path style="opacity:1" fill="#477ff0" d="M 287.5,144.5 C 285.037,148.3 281.704,150.967 277.5,152.5C 278.728,150.99 278.728,149.49 277.5,148C 280.758,146.533 284.092,145.367 287.5,144.5 Z"/></g>
<g><path style="opacity:1" fill="#4f83ea" d="M 290.5,141.5 C 291.708,140.218 293.042,140.218 294.5,141.5C 295.641,143.808 297.308,145.641 299.5,147C 301.833,146.667 304.167,146.333 306.5,146C 305.62,147.356 305.286,148.856 305.5,150.5C 309.167,150.5 312.833,150.5 316.5,150.5C 317.876,147.342 318.542,144.009 318.5,140.5C 319.473,142.948 319.806,145.615 319.5,148.5C 318.657,150.173 317.324,151.34 315.5,152C 309.443,153.162 303.777,152.162 298.5,149C 295.964,146.295 293.297,143.795 290.5,141.5 Z"/></g>
<g><path style="opacity:0.953" fill="#86aaed" d="M 219.5,151.5 C 224.018,152.556 228.018,154.556 231.5,157.5C 226.902,156.535 222.902,154.535 219.5,151.5 Z"/></g>
<g><path style="opacity:0.137" fill="#a9d3f3" d="M 232.5,157.5 C 235.152,157.41 237.485,158.076 239.5,159.5C 236.848,159.59 234.515,158.924 232.5,157.5 Z"/></g>
<g><path style="opacity:1" fill="#8fc0fe" d="M 15.5,159.5 C 36.1667,159.5 56.8333,159.5 77.5,159.5C 77.5,162.167 77.5,164.833 77.5,167.5C 56.8333,167.5 36.1667,167.5 15.5,167.5C 15.5,164.833 15.5,162.167 15.5,159.5 Z"/></g>
<g><path style="opacity:1" fill="#8fc0fe" d="M 421.5,159.5 C 442.167,159.5 462.833,159.5 483.5,159.5C 483.5,162.167 483.5,164.833 483.5,167.5C 462.833,167.5 442.167,167.5 421.5,167.5C 421.5,164.833 421.5,162.167 421.5,159.5 Z"/></g>
<g><path style="opacity:1" fill="#2070eb" d="M 15.5,159.5 C 15.5,162.167 15.5,164.833 15.5,167.5C 36.1667,167.5 56.8333,167.5 77.5,167.5C 56.6733,168.497 35.6733,168.831 14.5,168.5C 14.19,165.287 14.5233,162.287 15.5,159.5 Z"/></g>
<g><path style="opacity:1" fill="#7399e5" d="M 93.5,166.5 C 142.833,166.5 192.167,166.5 241.5,166.5C 217.176,167.833 192.509,168.5 167.5,168.5C 142.491,168.5 117.824,167.833 93.5,166.5 Z"/></g>
<g><path style="opacity:1" fill="#7399e5" d="M 257.5,166.5 C 306.833,166.5 356.167,166.5 405.5,166.5C 381.176,167.833 356.509,168.5 331.5,168.5C 306.491,168.5 281.824,167.833 257.5,166.5 Z"/></g>
<g><path style="opacity:1" fill="#2a7af5" d="M 413.5,190.5 C 413.5,188.167 413.5,185.833 413.5,183.5C 304.167,183.5 194.833,183.5 85.5,183.5C 87.2646,182.539 89.2646,182.205 91.5,182.5C 91.5,181.5 91.5,180.5 91.5,179.5C 145.751,180.816 200.084,181.483 254.5,181.5C 308.245,181.329 361.912,181.162 415.5,181C 414.868,184.27 414.201,187.437 413.5,190.5 Z"/></g>
<g><path style="opacity:1" fill="#176ff8" d="M 69.5,323.5 C 66.1626,323.813 63.8293,322.48 62.5,319.5C 62.1922,300.787 62.5256,282.12 63.5,263.5C 64.5478,261.466 66.2145,260.133 68.5,259.5C 69.4998,234.175 69.8331,208.842 69.5,183.5C 64.5,183.5 59.5,183.5 54.5,183.5C 54.6664,192.506 54.4998,201.506 54,210.5C 48.5135,216.08 43.5135,215.747 39,209.5C 38.5002,200.84 38.3336,192.173 38.5,183.5C 33.1667,183.5 27.8333,183.5 22.5,183.5C 22.1673,266.668 22.5007,349.668 23.5,432.5C 38.9911,433.496 54.6578,433.83 70.5,433.5C 69.376,434.809 67.876,435.475 66,435.5C 50.8584,434.539 35.6918,434.206 20.5,434.5C 20.5,350.5 20.5,266.5 20.5,182.5C 27.0898,182.189 33.5898,182.522 40,183.5C 40.5,184.5 41,185.5 41.5,186.5C 40.2026,193.473 40.2026,200.473 41.5,207.5C 42.086,207.291 42.586,206.957 43,206.5C 44.6477,207.717 46.481,208.55 48.5,209C 47.1667,209.333 45.8333,209.667 44.5,210C 43.3044,210.654 43.3044,211.154 44.5,211.5C 47.5838,211.139 50.0838,209.806 52,207.5C 52.4265,199.156 52.9265,190.823 53.5,182.5C 59.1667,182.5 64.8333,182.5 70.5,182.5C 70.3334,206.502 70.5,230.502 71,254.5C 73.2321,258.058 72.3988,260.891 68.5,263C 67.2068,263.49 65.8734,263.657 64.5,263.5C 64.0149,280.407 63.6816,297.407 63.5,314.5C 63.4363,316.389 63.9363,318.056 65,319.5C 65.2492,318.376 65.7492,317.376 66.5,316.5C 67.754,318.259 67.4206,319.759 65.5,321C 67.437,321.122 68.7703,321.955 69.5,323.5 Z"/></g>
<g><path style="opacity:1" fill="#5a9dfe" d="M 63.5,263.5 C 62.8826,263.611 62.3826,263.944 62,264.5C 61.1712,283.005 61.3379,301.338 62.5,319.5C 63.8293,322.48 66.1626,323.813 69.5,323.5C 69.5,359.833 69.5,396.167 69.5,432.5C 54.1667,432.5 38.8333,432.5 23.5,432.5C 22.5007,349.668 22.1673,266.668 22.5,183.5C 27.8333,183.5 33.1667,183.5 38.5,183.5C 38.3336,192.173 38.5002,200.84 39,209.5C 43.5135,215.747 48.5135,216.08 54,210.5C 54.4998,201.506 54.6664,192.506 54.5,183.5C 59.5,183.5 64.5,183.5 69.5,183.5C 69.8331,208.842 69.4998,234.175 68.5,259.5C 66.2145,260.133 64.5478,261.466 63.5,263.5 Z"/></g>
<g><path style="opacity:1" fill="#5a9dfe" d="M 444.5,183.5 C 444.334,192.506 444.5,201.506 445,210.5C 450.569,216.174 455.569,215.84 460,209.5C 460.5,200.84 460.666,192.173 460.5,183.5C 465.833,183.5 471.167,183.5 476.5,183.5C 476.667,266.501 476.5,349.501 476,432.5C 460.578,433.491 445.078,433.824 429.5,433.5C 429.5,396.833 429.5,360.167 429.5,323.5C 432.535,323.653 434.535,322.32 435.5,319.5C 436.222,319.082 436.722,318.416 437,317.5C 437.667,300.167 437.667,282.833 437,265.5C 434.743,263.954 432.576,262.288 430.5,260.5C 429.5,234.842 429.167,209.175 429.5,183.5C 434.5,183.5 439.5,183.5 444.5,183.5 Z"/></g>
<g><path style="opacity:1" fill="#90c1fe" d="M 85.5,183.5 C 194.833,183.5 304.167,183.5 413.5,183.5C 413.5,185.833 413.5,188.167 413.5,190.5C 304.167,190.5 194.833,190.5 85.5,190.5C 85.5,188.167 85.5,185.833 85.5,183.5 Z"/></g>
<g><path style="opacity:1" fill="#266bda" d="M 3.5,182.5 C 5.16667,182.5 6.83333,182.5 8.5,182.5C 8.83266,265.668 8.49932,348.668 7.5,431.5C 7.83265,349.332 7.49932,267.332 6.5,185.5C 5.90018,184.1 4.90018,183.1 3.5,182.5 Z"/></g>
<g><path style="opacity:1" fill="#3178f1" d="M 85.5,190.5 C 194.833,190.5 304.167,190.5 413.5,190.5C 359.171,191.833 304.504,192.5 249.5,192.5C 194.496,192.5 139.829,191.833 85.5,190.5 Z"/></g>
<g><path style="opacity:1" fill="#1470f8" d="M 143.5,206.5 C 134.5,206.5 125.5,206.5 116.5,206.5C 116.861,212.139 114.194,214.806 108.5,214.5C 104.059,213.626 101.392,210.959 100.5,206.5C 95.5,206.5 90.5,206.5 85.5,206.5C 85.1674,220.516 85.5008,234.516 86.5,248.5C 90.5531,246.473 94.5531,244.473 98.5,242.5C 98.8333,242.5 99.1667,242.5 99.5,242.5C 99.4802,244.143 100.147,245.476 101.5,246.5C 99.8361,247.223 98.1694,246.89 96.5,245.5C 95.3776,247.044 95.711,248.377 97.5,249.5C 95.8513,250.648 94.3513,251.981 93,253.5C 92.0054,251.839 90.672,250.505 89,249.5C 87.5838,250.573 86.2504,250.573 85,249.5C 84.51,250.793 84.3433,252.127 84.5,253.5C 83.5,253.5 82.5,253.5 81.5,253.5C 82.0555,249.003 81.3888,244.836 79.5,241C 80,240.5 80.5,240 81,239.5C 80.8661,228.084 81.6995,216.917 83.5,206C 83.1667,205.667 82.8333,205.333 82.5,205C 86.4218,202.677 86.0885,202.177 81.5,203.5C 80.3044,203.154 80.3044,202.654 81.5,202C 82.5,201.833 83.5,201.667 84.5,201.5C 87.2052,202.859 90.0385,203.859 93,204.5C 98.7566,202.579 102.423,204.579 104,210.5C 106.664,212.955 109.498,213.122 112.5,211C 113.675,208.317 115.342,205.983 117.5,204C 126.274,204.682 134.941,205.516 143.5,206.5 Z"/></g>
<g><path style="opacity:1" fill="#5a9dfe" d="M 143.5,206.5 C 144.833,206.5 146.167,206.5 147.5,206.5C 149.46,214.867 154.127,216.7 161.5,212C 162.861,210.416 163.528,208.582 163.5,206.5C 173.855,206.168 184.188,206.501 194.5,207.5C 196.585,214.497 200.918,216.331 207.5,213C 209.451,211.266 210.451,209.099 210.5,206.5C 220.833,206.5 231.167,206.5 241.5,206.5C 243.387,214.865 248.054,216.698 255.5,212C 256.861,210.416 257.528,208.582 257.5,206.5C 267.833,206.5 278.167,206.5 288.5,206.5C 288.801,211.299 291.301,213.966 296,214.5C 301.468,214.534 303.968,211.867 303.5,206.5C 314.167,206.5 324.833,206.5 335.5,206.5C 335.801,211.299 338.301,213.966 343,214.5C 348.468,214.534 350.968,211.867 350.5,206.5C 361.167,206.5 371.833,206.5 382.5,206.5C 384.629,215.05 389.296,216.716 396.5,211.5C 397.95,210.15 398.617,208.484 398.5,206.5C 403.5,206.5 408.5,206.5 413.5,206.5C 413.5,220.833 413.5,235.167 413.5,249.5C 412.448,249.649 411.448,249.483 410.5,249C 404.95,245.217 399.283,241.717 393.5,238.5C 297.334,237.334 201.001,237.168 104.5,238C 102.253,239.277 100.253,240.777 98.5,242.5C 94.5531,244.473 90.5531,246.473 86.5,248.5C 85.5008,234.516 85.1674,220.516 85.5,206.5C 90.5,206.5 95.5,206.5 100.5,206.5C 101.392,210.959 104.059,213.626 108.5,214.5C 114.194,214.806 116.861,212.139 116.5,206.5C 125.5,206.5 134.5,206.5 143.5,206.5 Z"/></g>
<g><path style="opacity:1" fill="#267bf9" d="M 393.5,238.5 C 297.498,238.167 201.498,238.5 105.5,239.5C 103.68,240.883 101.68,241.883 99.5,242.5C 99.1667,242.5 98.8333,242.5 98.5,242.5C 100.253,240.777 102.253,239.277 104.5,238C 201.001,237.168 297.334,237.334 393.5,238.5 Z"/></g>
<g><path style="opacity:1" fill="#2f78e9" d="M 388.5,253.5 C 295.499,253.333 202.499,253.5 109.5,254C 108.437,255.188 107.103,255.688 105.5,255.5C 105.5,254.5 105.5,253.5 105.5,252.5C 200.001,252.167 294.335,252.501 388.5,253.5 Z"/></g>
<g><path style="opacity:1" fill="#d3e9fd" d="M 388.5,253.5 C 391.291,255.735 394.291,257.735 397.5,259.5C 298.5,260.833 199.5,260.833 100.5,259.5C 102.142,258.197 103.809,256.864 105.5,255.5C 107.103,255.688 108.437,255.188 109.5,254C 202.499,253.5 295.499,253.333 388.5,253.5 Z"/></g>
<g><path style="opacity:1" fill="#9ac5ff" d="M 99.5,259.5 C 99.8333,259.5 100.167,259.5 100.5,259.5C 199.5,260.833 298.5,260.833 397.5,259.5C 398.5,259.833 399.167,260.5 399.5,261.5C 299.166,261.667 198.833,261.5 98.5,261C 99.056,260.617 99.3893,260.117 99.5,259.5 Z"/></g>
<g><path style="opacity:1" fill="#206de3" d="M 99.5,259.5 C 99.3893,260.117 99.056,260.617 98.5,261C 198.833,261.5 299.166,261.667 399.5,261.5C 299.001,262.499 198.335,262.833 97.5,262.5C 97.2852,260.821 97.9519,259.821 99.5,259.5 Z"/></g>
<g><path style="opacity:1" fill="#3587fe" d="M 63.5,263.5 C 62.5256,282.12 62.1922,300.787 62.5,319.5C 61.3379,301.338 61.1712,283.005 62,264.5C 62.3826,263.944 62.8826,263.611 63.5,263.5 Z"/></g>
<g><path style="opacity:1" fill="#2176f7" d="M 444.5,183.5 C 439.5,183.5 434.5,183.5 429.5,183.5C 429.167,209.175 429.5,234.842 430.5,260.5C 432.576,262.288 434.743,263.954 437,265.5C 437.667,282.833 437.667,300.167 437,317.5C 436.722,318.416 436.222,319.082 435.5,319.5C 435.667,301.497 435.5,283.497 435,265.5C 432.667,264.167 430.333,262.833 428,261.5C 427.333,235.833 427.333,210.167 428,184.5C 430.554,183.229 433.387,182.562 436.5,182.5C 439.355,182.503 442.022,182.836 444.5,183.5 Z"/></g>
<g><path style="opacity:1" fill="#3e74d9" d="M 77.5,276.5 C 191.999,275.5 306.665,275.167 421.5,275.5C 421.5,286.167 421.5,296.833 421.5,307.5C 421.167,307.5 420.833,307.5 420.5,307.5C 420.5,297.5 420.5,287.5 420.5,277.5C 306.335,276.5 192.001,276.167 77.5,276.5 Z"/></g>
<g><path style="opacity:1" fill="#3574e1" d="M 364.5,285.5 C 364.5,286.167 364.5,286.833 364.5,287.5C 288.54,286.339 212.54,286.173 136.5,287C 137.624,287.249 138.624,287.749 139.5,288.5C 137.288,287.911 135.288,288.577 133.5,290.5C 134.167,288.833 134.833,287.167 135.5,285.5C 211.736,284.169 288.069,284.169 364.5,285.5 Z"/></g>
<g><path style="opacity:1" fill="#136ffe" d="M 364.5,287.5 C 365.167,287.833 365.833,288.167 366.5,288.5C 367.833,291.167 367.833,293.833 366.5,296.5C 363.752,298.044 360.752,298.71 357.5,298.5C 283.167,298.5 208.833,298.5 134.5,298.5C 134.784,296.585 134.451,294.919 133.5,293.5C 133.5,292.5 133.5,291.5 133.5,290.5C 135.288,288.577 137.288,287.911 139.5,288.5C 138.624,287.749 137.624,287.249 136.5,287C 212.54,286.173 288.54,286.339 364.5,287.5 Z"/></g>
<g><path style="opacity:0.157" fill="#a4d1f1" d="M 364.5,285.5 C 365.906,285.973 366.573,286.973 366.5,288.5C 365.833,288.167 365.167,287.833 364.5,287.5C 364.5,286.833 364.5,286.167 364.5,285.5 Z"/></g>
<g><path style="opacity:1" fill="#638be4" d="M 492.5,183.5 C 492.5,266.5 492.5,349.5 492.5,432.5C 495.089,432.461 497.089,433.461 498.5,435.5C 496.063,435.244 493.729,434.577 491.5,433.5C 490.831,383.599 490.164,333.766 489.5,284C 490.323,281.241 490.99,278.407 491.5,275.5C 490.848,259.857 490.515,244.191 490.5,228.5C 490.501,213.151 491.167,198.151 492.5,183.5 Z"/></g>
<g><path style="opacity:0.122" fill="#bcdeff" d="M 77.5,276.5 C 192.001,276.167 306.335,276.5 420.5,277.5C 306.5,277.5 192.5,277.5 78.5,277.5C 78.5,287.167 78.5,296.833 78.5,306.5C 78.1667,306.5 77.8333,306.5 77.5,306.5C 77.5,296.5 77.5,286.5 77.5,276.5 Z"/></g>
<g><path style="opacity:1" fill="#749cdf" d="M 135.5,285.5 C 134.833,287.167 134.167,288.833 133.5,290.5C 133.5,291.5 133.5,292.5 133.5,293.5C 133.5,295.167 133.5,296.833 133.5,298.5C 132.778,298.082 132.278,297.416 132,296.5C 131.333,293.833 131.333,291.167 132,288.5C 132.422,286.574 133.589,285.574 135.5,285.5 Z"/></g>
<g><path style="opacity:1" fill="#1c6ce8" d="M 133.5,293.5 C 134.451,294.919 134.784,296.585 134.5,298.5C 208.833,298.5 283.167,298.5 357.5,298.5C 283.669,299.499 209.669,299.833 135.5,299.5C 134.508,299.672 133.842,299.338 133.5,298.5C 133.5,296.833 133.5,295.167 133.5,293.5 Z"/></g>
<g><path style="opacity:0.78" fill="#588bdd" d="M 366.5,296.5 C 366.426,298.411 365.426,299.578 363.5,300C 287.332,300.832 211.332,300.666 135.5,299.5C 209.669,299.833 283.669,299.499 357.5,298.5C 360.752,298.71 363.752,298.044 366.5,296.5 Z"/></g>
<g><path style="opacity:1" fill="#5787ea" d="M 77.5,306.5 C 77.8333,306.5 78.1667,306.5 78.5,306.5C 192.332,307.5 306.332,307.833 420.5,307.5C 420.833,307.5 421.167,307.5 421.5,307.5C 421.5,308.167 421.5,308.833 421.5,309.5C 307.167,309.5 192.833,309.5 78.5,309.5C 77.596,308.791 77.2627,307.791 77.5,306.5 Z"/></g>
<g><path style="opacity:1" fill="#0f70f7" d="M 78.5,309.5 C 192.833,309.5 307.167,309.5 421.5,309.5C 420.183,312.753 418.183,313.587 415.5,312C 303.833,311.667 192.167,311.333 80.5,311C 79.5842,310.722 78.9175,310.222 78.5,309.5 Z"/></g>
<g><path style="opacity:1" fill="#5a9dfe" d="M 413.5,432.5 C 374.5,432.5 335.5,432.5 296.5,432.5C 296.981,407.41 296.481,382.41 295,357.5C 293.745,356.789 292.579,355.956 291.5,355C 263.5,354.333 235.5,354.333 207.5,355C 206.069,355.465 204.903,356.299 204,357.5C 202.519,382.41 202.019,407.41 202.5,432.5C 163.5,432.5 124.5,432.5 85.5,432.5C 85.5,396.167 85.5,359.833 85.5,323.5C 194.833,323.5 304.167,323.5 413.5,323.5C 413.5,359.833 413.5,396.167 413.5,432.5 Z M 111.5,371.5 C 115.437,371.207 119.27,371.54 123,372.5C 123.5,379.158 123.666,385.825 123.5,392.5C 119.5,392.5 115.5,392.5 111.5,392.5C 111.167,392.5 110.833,392.5 110.5,392.5C 110.205,385.412 110.538,378.412 111.5,371.5 Z M 332.5,371.5 C 334.405,378.219 335.071,385.219 334.5,392.5C 330.167,392.5 325.833,392.5 321.5,392.5C 321.5,385.833 321.5,379.167 321.5,372.5C 325.064,371.577 328.731,371.244 332.5,371.5 Z M 385.5,371.5 C 386.209,372.404 387.209,372.737 388.5,372.5C 388.5,379.167 388.5,385.833 388.5,392.5C 384.167,392.5 379.833,392.5 375.5,392.5C 375.334,385.825 375.5,379.158 376,372.5C 379.057,371.549 382.223,371.216 385.5,371.5 Z M 177.5,371.5 C 177.5,378.5 177.5,385.5 177.5,392.5C 173.167,392.5 168.833,392.5 164.5,392.5C 164.334,385.825 164.5,379.158 165,372.5C 169.066,371.536 173.233,371.203 177.5,371.5 Z"/></g>
<g><path style="opacity:1" fill="#126efc" d="M 293.5,333.5 C 296.386,340.566 294.053,344.399 286.5,345C 260.16,345.323 233.827,345.823 207.5,346.5C 203.997,345.351 202.331,342.851 202.5,339C 202.575,335.583 204.241,333.25 207.5,332C 235.833,331.333 264.167,331.333 292.5,332C 293.056,332.383 293.389,332.883 293.5,333.5 Z"/></g>
<g><path style="opacity:1" fill="#2e7ffc" d="M 69.5,323.5 C 70.4985,359.996 70.8318,396.663 70.5,433.5C 54.6578,433.83 38.9911,433.496 23.5,432.5C 38.8333,432.5 54.1667,432.5 69.5,432.5C 69.5,396.167 69.5,359.833 69.5,323.5 Z"/></g>
<g><path style="opacity:1" fill="#1f73f8" d="M 293.5,333.5 C 297.179,337.007 297.512,341.007 294.5,345.5C 293.624,346.251 292.624,346.751 291.5,347C 263.33,347.83 235.33,347.664 207.5,346.5C 233.827,345.823 260.16,345.323 286.5,345C 294.053,344.399 296.386,340.566 293.5,333.5 Z"/></g>
<g><path style="opacity:1" fill="#2476f7" d="M 191.5,356.5 C 178.829,356.333 166.162,356.5 153.5,357C 149.99,360.048 149.657,363.381 152.5,367C 151.207,367.49 149.873,367.657 148.5,367.5C 148.333,378.838 148.5,390.172 149,401.5C 150.366,403.37 151.533,405.37 152.5,407.5C 164.815,408.499 177.149,408.832 189.5,408.5C 177.007,409.66 164.34,409.827 151.5,409C 150.667,408.167 149.833,407.333 149,406.5C 147.38,390.901 147.047,375.234 148,359.5C 148.98,358.019 150.147,356.685 151.5,355.5C 164.154,354.334 176.82,354.167 189.5,355C 190.416,355.278 191.082,355.778 191.5,356.5 Z"/></g>
<g><path style="opacity:1" fill="#2b79f7" d="M 413.5,432.5 C 373.331,433.831 332.998,433.831 292.5,432.5C 293.814,420.155 294.481,407.655 294.5,395C 294.167,382.833 293.833,370.667 293.5,358.5C 291.556,357.811 289.556,357.311 287.5,357C 260.827,356.167 234.16,356.333 207.5,357.5C 206.855,358.646 206.022,359.646 205,360.5C 204.252,384.83 203.752,409.163 203.5,433.5C 163.996,433.832 124.663,433.499 85.5,432.5C 124.5,432.5 163.5,432.5 202.5,432.5C 202.019,407.41 202.519,382.41 204,357.5C 204.903,356.299 206.069,355.465 207.5,355C 235.5,354.333 263.5,354.333 291.5,355C 292.579,355.956 293.745,356.789 295,357.5C 296.481,382.41 296.981,407.41 296.5,432.5C 335.5,432.5 374.5,432.5 413.5,432.5 Z"/></g>
<g><path style="opacity:1" fill="#2577f6" d="M 350.5,405.5 C 350.667,390.83 350.5,376.163 350,361.5C 348.457,359.622 346.624,358.122 344.5,357C 332.454,356.188 320.454,356.354 308.5,357.5C 307.453,361.112 306.62,364.779 306,368.5C 305.83,379.674 305.33,390.674 304.5,401.5C 304.333,386.83 304.5,372.163 305,357.5C 305.903,356.299 307.069,355.465 308.5,355C 320.833,354.333 333.167,354.333 345.5,355C 348.232,355.398 350.065,356.898 351,359.5C 351.828,375.006 351.661,390.339 350.5,405.5 Z M 332.5,371.5 C 334.405,378.219 335.071,385.219 334.5,392.5C 330.167,392.5 325.833,392.5 321.5,392.5C 321.5,385.833 321.5,379.167 321.5,372.5C 325.064,371.577 328.731,371.244 332.5,371.5 Z"/></g>
<g><path style="opacity:1" fill="#2878f6" d="M 405.5,362.5 C 404.069,360.563 402.402,358.73 400.5,357C 387.591,356.178 374.758,356.345 362,357.5C 360.002,366.373 359.169,375.373 359.5,384.5C 359.667,390.5 359.833,396.5 360,402.5C 360.608,404.154 361.108,405.821 361.5,407.5C 360.21,406.942 359.377,405.942 359,404.5C 358.032,388.741 358.365,373.074 360,357.5C 360.903,356.299 362.069,355.465 363.5,355C 376.18,354.167 388.846,354.334 401.5,355.5C 404.547,356.875 405.88,359.208 405.5,362.5 Z"/></g>
<g><path style="opacity:1" fill="#116efc" d="M 97.5,355.5 C 108.505,355.333 119.505,355.5 130.5,356C 133.267,356.678 135.434,358.178 137,360.5C 138.632,374.74 138.965,389.073 138,403.5C 136.906,405.078 136.072,406.745 135.5,408.5C 122.673,409.66 109.673,409.827 96.5,409C 96,408.5 95.5,408 95,407.5C 93.3637,391.259 93.0304,374.925 94,358.5C 95.0391,357.29 96.2058,356.29 97.5,355.5 Z M 111.5,371.5 C 115.437,371.207 119.27,371.54 123,372.5C 123.5,379.158 123.666,385.825 123.5,392.5C 119.5,392.5 115.5,392.5 111.5,392.5C 111.167,392.5 110.833,392.5 110.5,392.5C 110.205,385.412 110.538,378.412 111.5,371.5 Z"/></g>
<g><path style="opacity:1" fill="#116efd" d="M 191.5,356.5 C 192.458,356.953 193.292,357.619 194,358.5C 194.667,373.5 194.667,388.5 194,403.5C 193.388,406.115 191.888,407.781 189.5,408.5C 177.149,408.832 164.815,408.499 152.5,407.5C 151.533,405.37 150.366,403.37 149,401.5C 148.5,390.172 148.333,378.838 148.5,367.5C 149.873,367.657 151.207,367.49 152.5,367C 149.657,363.381 149.99,360.048 153.5,357C 166.162,356.5 178.829,356.333 191.5,356.5 Z M 177.5,371.5 C 177.5,378.5 177.5,385.5 177.5,392.5C 173.167,392.5 168.833,392.5 164.5,392.5C 164.334,385.825 164.5,379.158 165,372.5C 169.066,371.536 173.233,371.203 177.5,371.5 Z"/></g>
<g><path style="opacity:1" fill="#116efc" d="M 350.5,405.5 C 349.251,407.136 347.584,408.303 345.5,409C 332.833,409.667 320.167,409.667 307.5,409C 305.253,407.005 304.253,404.505 304.5,401.5C 305.33,390.674 305.83,379.674 306,368.5C 306.62,364.779 307.453,361.112 308.5,357.5C 320.454,356.354 332.454,356.188 344.5,357C 346.624,358.122 348.457,359.622 350,361.5C 350.5,376.163 350.667,390.83 350.5,405.5 Z M 332.5,371.5 C 334.405,378.219 335.071,385.219 334.5,392.5C 330.167,392.5 325.833,392.5 321.5,392.5C 321.5,385.833 321.5,379.167 321.5,372.5C 325.064,371.577 328.731,371.244 332.5,371.5 Z"/></g>
<g><path style="opacity:1" fill="#146ffc" d="M 405.5,362.5 C 405.967,377.597 405.467,392.597 404,407.5C 403.25,408.126 402.416,408.626 401.5,409C 394.833,409.167 388.167,409.333 381.5,409.5C 374.465,409.497 367.798,408.83 361.5,407.5C 361.108,405.821 360.608,404.154 360,402.5C 359.833,396.5 359.667,390.5 359.5,384.5C 359.169,375.373 360.002,366.373 362,357.5C 374.758,356.345 387.591,356.178 400.5,357C 402.402,358.73 404.069,360.563 405.5,362.5 Z M 385.5,371.5 C 386.209,372.404 387.209,372.737 388.5,372.5C 388.5,379.167 388.5,385.833 388.5,392.5C 384.167,392.5 379.833,392.5 375.5,392.5C 375.334,385.825 375.5,379.158 376,372.5C 379.057,371.549 382.223,371.216 385.5,371.5 Z"/></g>
<g><path style="opacity:1" fill="#2678f6" d="M 97.5,355.5 C 110.006,354.175 122.673,354.175 135.5,355.5C 136.628,356.262 137.795,356.929 139,357.5C 140.636,373.408 140.969,389.408 140,405.5C 138.871,407.141 137.371,408.141 135.5,408.5C 136.072,406.745 136.906,405.078 138,403.5C 138.965,389.073 138.632,374.74 137,360.5C 135.434,358.178 133.267,356.678 130.5,356C 119.505,355.5 108.505,355.333 97.5,355.5 Z"/></g>
<g><path style="opacity:1" fill="#246ee3" d="M 333.5,371.5 C 333.167,371.5 332.833,371.5 332.5,371.5C 328.731,371.244 325.064,371.577 321.5,372.5C 320.509,379.313 320.175,386.313 320.5,393.5C 318.537,386.576 317.87,379.243 318.5,371.5C 323.645,370.309 328.645,370.309 333.5,371.5 Z"/></g>
<g><path style="opacity:1" fill="#91c1fe" d="M 218.5,370.5 C 226.167,370.5 233.833,370.5 241.5,370.5C 241.5,391.5 241.5,412.5 241.5,433.5C 233.833,433.5 226.167,433.5 218.5,433.5C 218.5,412.5 218.5,391.5 218.5,370.5 Z"/></g>
<g><path style="opacity:0.024" fill="#8eb6ff" d="M 109.5,371.5 C 110.167,371.5 110.833,371.5 111.5,371.5C 110.538,378.412 110.205,385.412 110.5,392.5C 109.509,385.687 109.175,378.687 109.5,371.5 Z"/></g>
<g><path style="opacity:1" fill="#1d6eed" d="M 178.5,393.5 C 178.825,385.981 178.492,378.648 177.5,371.5C 173.233,371.203 169.066,371.536 165,372.5C 164.5,379.158 164.334,385.825 164.5,392.5C 164.5,392.833 164.5,393.167 164.5,393.5C 162.564,389.285 161.897,384.619 162.5,379.5C 158.5,378.833 158.5,378.167 162.5,377.5C 162.095,373.952 162.595,370.619 164,367.5C 165.786,369.099 167.953,369.933 170.5,370C 173.429,370.777 176.263,370.61 179,369.5C 179.98,371.059 180.813,372.726 181.5,374.5C 184.062,373.361 185.396,374.361 185.5,377.5C 185.176,380.329 183.843,380.996 181.5,379.5C 181.128,384.571 180.128,389.238 178.5,393.5 Z M 177.5,371.5 C 177.5,378.5 177.5,385.5 177.5,392.5C 173.167,392.5 168.833,392.5 164.5,392.5C 164.334,385.825 164.5,379.158 165,372.5C 169.066,371.536 173.233,371.203 177.5,371.5 Z"/></g>
<g><path style="opacity:1" fill="#91c1fe" d="M 257.5,370.5 C 265.167,370.5 272.833,370.5 280.5,370.5C 280.5,391.5 280.5,412.5 280.5,433.5C 272.833,433.5 265.167,433.5 257.5,433.5C 257.5,412.5 257.5,391.5 257.5,370.5 Z"/></g>
<g><path style="opacity:0.02" fill="#94c8ff" d="M 385.5,371.5 C 386.833,371.5 388.167,371.5 389.5,371.5C 389.825,378.687 389.491,385.687 388.5,392.5C 388.5,385.833 388.5,379.167 388.5,372.5C 387.209,372.737 386.209,372.404 385.5,371.5 Z"/></g>
<g><path style="opacity:0.075" fill="#4580e5" d="M 109.5,371.5 C 114.234,370.176 119.067,370.176 124,371.5C 124.5,378.826 124.666,386.159 124.5,393.5C 119.968,393.818 115.634,393.485 111.5,392.5C 115.5,392.5 119.5,392.5 123.5,392.5C 123.666,385.825 123.5,379.158 123,372.5C 119.27,371.54 115.437,371.207 111.5,371.5C 110.833,371.5 110.167,371.5 109.5,371.5 Z"/></g>
<g><path style="opacity:0.016" fill="#84b7ff" d="M 177.5,371.5 C 178.492,378.648 178.825,385.981 178.5,393.5C 173.833,393.5 169.167,393.5 164.5,393.5C 164.5,393.167 164.5,392.833 164.5,392.5C 168.833,392.5 173.167,392.5 177.5,392.5C 177.5,385.5 177.5,378.5 177.5,371.5 Z"/></g>
<g><path style="opacity:0.48" fill="#618fe9" d="M 332.5,371.5 C 332.833,371.5 333.167,371.5 333.5,371.5C 334.822,374.768 335.489,378.435 335.5,382.5C 335.333,386.167 335.167,389.833 335,393.5C 330.167,394.808 325.334,394.808 320.5,393.5C 320.175,386.313 320.509,379.313 321.5,372.5C 321.5,379.167 321.5,385.833 321.5,392.5C 325.833,392.5 330.167,392.5 334.5,392.5C 335.071,385.219 334.405,378.219 332.5,371.5 Z"/></g>
<g><path style="opacity:1" fill="#7a9fe7" d="M 6.5,185.5 C 7.49932,267.332 7.83265,349.332 7.5,431.5C 7.78522,433.288 7.45189,434.955 6.5,436.5C 3.51499,434.885 1.51499,435.719 0.5,439C 1.06288,441.727 1.72954,444.393 2.5,447C 167.517,447.826 332.517,447.66 497.5,446.5C 497.285,444.821 497.952,443.821 499.5,443.5C 499.5,444.167 499.5,444.833 499.5,445.5C 498.684,447.144 497.35,448.31 495.5,449C 331.5,449.667 167.5,449.667 3.5,449C 1.64977,448.31 0.316435,447.144 -0.5,445.5C -0.5,442.5 -0.5,439.5 -0.5,436.5C 1.01439,433.905 3.34772,432.571 6.5,432.5C 6.5,350.167 6.5,267.833 6.5,185.5 Z"/></g>
</svg>
